#!OML:ASF E:\VariousWalksJay\Project 1\Capture day 1\Session 1\Actor2.ASF
:FULLY-SPECIFIED
:DEGREES
1198
root -12.1359 16.569 37.1026 19.6879 -33.0067 -8.43949
lowerback 8.28139 -0.960548 2.77182
upperback 11.7343 -1.31346 -2.31136
thorax 7.64584 -0.411388 -3.98947
lowerneck 1.65069 -0.586405 3.15118
upperneck 1.00344 -0.814058 7.68708
head 0.054656 -0.429565 1.86059
rclavicle -4.53229e-014 -4.29375e-014
rhumerus -27.253 13.0381 -88.2411
rradius 64.1007
rwrist -1.11984
rhand -22.2713 -10.1377
rfingers 7.12502
rthumb 4.14681 -40.0771
lclavicle -4.53229e-014 -4.29375e-014
lhumerus 12.9347 -33.4613 69.8933
lradius 58.765
lwrist 54.9848
lhand -26.2716 9.3384
lfingers 7.12502
lthumb 0.283407 39.318
rfemur -21.2518 2.87826 19.9318
rtibia 66.2906
rfoot -2.92434 -6.75415
rtoes -21.3148
lfemur -41.8001 2.7591 -17.9306
ltibia 42.1547
lfoot -13.5905 -1.44922
ltoes 0.768716
1199
root -12.1529 16.5983 37.1578 19.4198 -33.2967 -8.45077
lowerback 8.14103 -0.955638 2.70368
upperback 11.5964 -1.30726 -2.32719
thorax 7.57106 -0.415354 -3.96729
lowerneck 1.26157 -0.570056 3.21826
upperneck 1.65399 -0.86553 7.61989
head 0.322128 -0.422086 1.82542
rclavicle -4.77083e-015 -6.36111e-015
rhumerus -27.3382 12.8628 -88.2473
rradius 63.6907
rwrist -0.95826
rhand -22.2354 -10.1169
rfingers 7.12502
rthumb 4.18147 -40.0556
lclavicle -4.77083e-015 -6.36111e-015
lhumerus 12.0651 -33.6382 70.2863
lradius 58.2133
lwrist 54.2249
lhand -26.5589 8.49952
lfingers 7.12502
lthumb 0.00597791 38.4793
rfemur -21.8703 2.66775 20.0521
rtibia 66.5263
rfoot -4.57504 -7.21473
rtoes -21.8375
lfemur -40.9284 2.93783 -18.0214
ltibia 41.6219
lfoot -13.624 -1.35991
ltoes 0.683573
1200
root -12.1699 16.6269 37.2118 19.1535 -33.5826 -8.44746
lowerback 7.98728 -0.951079 2.6312
upperback 11.4624 -1.30184 -2.34202
thorax 7.50854 -0.419649 -3.942
lowerneck 0.840333 -0.555379 3.28085
upperneck 2.31569 -0.922018 7.54446
head 0.598941 -0.416217 1.79028
rclavicle -8.98507e-014 6.36111e-015
rhumerus -27.4179 12.6752 -88.2454
rradius 63.2824
rwrist -0.814526
rhand -22.217 -10.0879
rfingers 7.12502
rthumb 4.19921 -40.0262
lclavicle -8.98507e-014 6.36111e-015
lhumerus 11.2217 -33.814 70.6739
lradius 57.624
lwrist 53.4514
lhand -26.9799 7.55171
lfingers 7.12502
lthumb -0.400715 37.5311
rfemur -22.4798 2.44464 20.186
rtibia 66.6552
rfoot -6.2172 -7.73119
rtoes -22.3014
lfemur -40.0722 3.10065 -18.1179
ltibia 41.0852
lfoot -13.6542 -1.25819
ltoes 0.684679
1201
root -12.1869 16.6547 37.2639 18.8935 -33.8581 -8.42852
lowerback 7.82394 -0.950596 2.54785
upperback 11.3324 -1.30219 -2.35517
thorax 7.45582 -0.427361 -3.90904
lowerneck 0.368457 -0.541761 3.34524
upperneck 2.99515 -0.984134 7.45846
head 0.891308 -0.411732 1.75325
rclavicle -6.59965e-014 -7.95139e-015
rhumerus -27.4817 12.4889 -88.2372
rradius 62.8737
rwrist -0.712248
rhand -22.2062 -10.0539
rfingers 7.12502
rthumb 4.20963 -39.992
lclavicle -6.59965e-014 -7.95139e-015
lhumerus 10.4088 -33.9796 71.0494
lradius 56.9999
lwrist 52.6985
lhand -27.419 6.62758
lfingers 7.12502
lthumb -0.824788 36.6057
rfemur -23.091 2.21159 20.3369
rtibia 66.6774
rfoot -7.81842 -8.31972
rtoes -22.7129
lfemur -39.2428 3.24436 -18.2178
ltibia 40.5452
lfoot -13.6732 -1.14896
ltoes 0.746804
1202
root -12.2037 16.6815 37.3147 18.6326 -34.1257 -8.39677
lowerback 7.65382 -0.954589 2.45987
upperback 11.2047 -1.30855 -2.36739
thorax 7.40938 -0.438163 -3.87261
lowerneck -0.118312 -0.527051 3.41056
upperneck 3.67813 -1.04526 7.35434
head 1.18957 -0.406839 1.71187
rclavicle -7.95139e-016 -1.90833e-014
rhumerus -27.5436 12.3092 -88.2256
rradius 62.4682
rwrist -0.657803
rhand -22.2037 -10.0186
rfingers 7.12502
rthumb 4.21207 -39.9567
lclavicle -7.95139e-016 -1.90833e-014
lhumerus 9.61055 -34.133 71.422
lradius 56.3479
lwrist 52.0074
lhand -27.7361 5.88896
lfingers 7.12502
lthumb -1.13106 35.8657
rfemur -23.6861 1.97441 20.5009
rtibia 66.5881
rfoot -9.35863 -8.97397
rtoes -23.0352
lfemur -38.4278 3.37008 -18.3207
ltibia 40.0033
lfoot -13.686 -1.03545
ltoes 0.938713
1203
root -12.2204 16.7076 37.3641 18.3693 -34.3905 -8.35961
lowerback 7.48071 -0.961626 2.3704
upperback 11.0842 -1.31898 -2.38044
thorax 7.3726 -0.45073 -3.83649
lowerneck -0.627817 -0.513878 3.47364
upperneck 4.36027 -1.10944 7.24783
head 1.49483 -0.403602 1.67128
rclavicle 3.97569e-014 5.56597e-014
rhumerus -27.5963 12.1346 -88.2155
rradius 62.0655
rwrist -0.649831
rhand -22.1989 -9.98551
rfingers 7.12502
rthumb 4.21674 -39.9235
lclavicle 3.97569e-014 5.56597e-014
lhumerus 8.83657 -34.2738 71.7798
lradius 55.6682
lwrist 51.4086
lhand -27.8271 5.43349
lfingers 7.12502
lthumb -1.21888 35.4098
rfemur -24.2562 1.74898 20.6809
rtibia 66.3864
rfoot -10.8342 -9.6681
rtoes -23.2057
lfemur -37.6245 3.48011 -18.4193
ltibia 39.468
lfoot -13.6993 -0.911031
ltoes 1.23913
